<svg width="256" height="256" viewBox="0 0 256 256" xmlns="http://www.w3.org/2000/svg" role="img" aria-label="K">
  <defs>
    <linearGradient id="g" x1="0" x2="1" y1="0" y2="1">
      <stop offset="0" stop-color="#3b82f6"/>
      <stop offset="1" stop-color="#22d3ee"/>
    </linearGradient>
  </defs>
  <rect width="256" height="256" rx="48" fill="#0e131b"/>
  <g transform="translate(28 28)">
    <circle cx="100" cy="100" r="100" fill="none"/>
    <g transform="translate(0,0)">
      <path d="M100 0a100 100 0 1 0 0 200a100 100 0 1 0 0-200zm0 22a78 78 0 1 1 0 156a78 78 0 1 1 0-156z"
            fill="url(#g)" opacity="0.35"/>
      <g transform="translate(22 22)">
        <circle cx="78" cy="78" r="78" fill="none"/>
        <path d="M64 130V26h18v38l36-38h24l-44 45 46 59h-24l-38-49v49H64z" fill="url(#g)"/>
      </g>
    </g>
  </g>
</svg>
